<svg version="1.0" xmlns="http://www.w3.org/2000/svg" width="346.667" height="346.667" viewBox="0 0 260 260"><path d="M118 15.1c-6.3 3.8-13.5 8.1-16 9.4-2.5 1.4-5.8 3.4-7.5 4.4-4.3 2.6-54 31.8-60.5 35.6-3 1.8-8.3 4.8-11.6 6.8L16.2 75v107l5.7 3.2c5.4 3 22.3 12.8 81.7 47.1 14.9 8.7 27.6 15.7 28.2 15.7.9 0 10.1-5.1 29.3-16.3 8.9-5.1 39.2-22.6 58.9-33.9 12.4-7.1 23-13.6 23.7-14.5.9-1.1 1.2-15.1 1.3-54.8V75.2l-3.7-2.4c-2.1-1.2-4.6-2.8-5.5-3.3-1-.6-7.5-4.4-14.5-8.5-6.9-4.1-14.5-8.6-16.7-9.9-2.3-1.3-10.2-6-17.6-10.4-7.4-4.4-14.8-8.8-16.5-9.7-1.6-.9-11.1-6.5-20.9-12.4-9.9-5.8-18.5-10.6-19-10.5-.6 0-6.3 3.2-12.6 7z"/></svg>