<?xml version="1.0" standalone="no"?>
<!DOCTYPE svg PUBLIC "-//W3C//DTD SVG 20010904//EN"
 "http://www.w3.org/TR/2001/REC-SVG-20010904/DTD/svg10.dtd">
<svg version="1.0" xmlns="http://www.w3.org/2000/svg"
 width="260.000000pt" height="260.000000pt" viewBox="0 0 260.000000 260.000000"
 preserveAspectRatio="xMidYMid meet">
<metadata>
Created by potrace 1.11, written by Peter Selinger 2001-2013
</metadata>
<g transform="translate(0.000000,260.000000) scale(0.100000,-0.100000)"
fill="#000000" stroke="none">
<path d="M1180 2449 c-63 -38 -135 -81 -160 -94 -25 -14 -58 -34 -75 -44 -43
-26 -540 -318 -605 -356 -30 -18 -83 -48 -116 -68 l-62 -37 0 -535 0 -535 57
-32 c54 -30 223 -128 817 -471 149 -87 276 -157 282 -157 9 0 101 51 293 163
89 51 392 226 589 339 124 71 230 136 237 145 9 11 12 151 13 548 l0 533 -37
24 c-21 12 -46 28 -55 33 -10 6 -75 44 -145 85 -69 41 -145 86 -167 99 -23 13
-102 60 -176 104 -74 44 -148 88 -165 97 -16 9 -111 65 -209 124 -99 58 -185
106 -190 105 -6 0 -63 -32 -126 -70z"/>
</g>
</svg>
